<?xml version="1.0" encoding="UTF-8"?> <svg xmlns="http://www.w3.org/2000/svg" width="60" height="60" viewBox="0 0 60 60" fill="none"> <path fill-rule="evenodd" clip-rule="evenodd" d="M49.7732 5.01621C50.2356 4.97205 50.701 5.05755 51.1175 5.26312C51.5331 5.47079 51.8826 5.79015 52.1268 6.18537C52.371 6.58059 52.5002 7.03604 52.5 7.50062V32.5006C52.5 44.9006 38.595 51.2656 32.6575 53.9831L32.5814 54.018C31.9879 54.2899 31.4946 54.5159 31.1325 54.6981C30.7816 54.8764 30.3936 54.9693 30 54.9693C29.6064 54.9693 29.2184 54.8764 28.8675 54.6981C28.5054 54.5159 28.0121 54.2899 27.4186 54.018L27.3425 53.9831C21.405 51.2656 7.5 44.9006 7.5 32.5006V7.50062C7.50231 7.03741 7.63328 6.58394 7.87828 6.19081C8.12329 5.79769 8.4727 5.48036 8.88754 5.27424C9.30237 5.06812 9.76632 4.98131 10.2276 5.02349C10.6889 5.06567 11.1294 5.23518 11.5 5.51312L12.5 6.26312C14.6682 7.8752 17.2982 8.74576 20 8.74576C22.7018 8.74576 25.3318 7.8752 27.5 6.26312L28.5 5.51312C28.9327 5.18857 29.4591 5.01312 30 5.01312C30.5409 5.01312 31.0673 5.18857 31.5 5.51312L32.5 6.26312C34.6682 7.8752 37.2982 8.74576 40 8.74576C42.7018 8.74576 45.3318 7.8752 47.5 6.26312L48.5 5.51312C48.87 5.23244 49.3109 5.06037 49.7732 5.01621ZM30.575 49.4356C35.64 47.1181 47.5 41.6906 47.5 32.5006V12.0556C44.7118 13.3676 41.628 13.9247 38.557 13.6711C35.4859 13.4175 32.5353 12.3622 30 10.6106C27.4648 12.3624 24.5142 13.4179 21.4431 13.6715C18.372 13.925 15.2882 13.3679 12.5 12.0556V32.5006C12.5 41.6906 24.36 47.1181 29.425 49.4356L30 49.7006L30.575 49.4356ZM27.3475 31.7683L36.1875 22.9308C36.659 22.4754 37.2905 22.2234 37.946 22.2291C38.6015 22.2348 39.2285 22.4978 39.6921 22.9613C40.1556 23.4248 40.4185 24.0518 40.4242 24.7073C40.4299 25.3628 40.1779 25.9943 39.7225 26.4658L29.115 37.0708C28.6462 37.5395 28.0104 37.8028 27.3475 37.8028C26.6846 37.8028 26.0488 37.5395 25.58 37.0708L20.2775 31.7683C19.8221 31.2968 19.5701 30.6653 19.5758 30.0098C19.5815 29.3543 19.8444 28.7273 20.308 28.2638C20.7715 27.8003 21.3985 27.5373 22.054 27.5316C22.7095 27.5259 23.341 27.7779 23.8125 28.2333L27.3475 31.7683Z" fill="#393A3D"></path> </svg> 